# xmcd
#
# Track frame offsets: 
#        150
#        18802
#        32297
#        45093
#        55499
#        87963
#        103270
#        116991
#        129592
#        145852
#        167715
#        185142
#        206001
#
# Disc length: 2953 seconds
#
# Revision: 0
# Processed by: cddbd v1.5.2PL0 Copyright (c) Steve Scherf et al.
# Submitted via: ExactAudioCopy v0.95b3
#
DISCID=b10b870d
DTITLE=The Beatles  - 1967-1970 CD 1  (US Stereo Ebbetts)
DYEAR=1900
DGENRE=
TTITLE0=Strawberry Fields Forever
TTITLE1=The Fool on the Hill
TTITLE2=Magical Mystery Tour
TTITLE3=Lady Madonna
TTITLE4=Hey Jude
TTITLE5=Revolution
TTITLE6=Penny Lane
TTITLE7=With a Little Help from My Friends
TTITLE8=Lucy in the Sky with Diamonds
TTITLE9=A Day in the Life
TTITLE10=All You Need is Love
TTITLE11=I am the Walrus
TTITLE12=Hello, Goodbye
EXTD=
EXTT0=
EXTT1=
EXTT2=
EXTT3=
EXTT4=
EXTT5=
EXTT6=
EXTT7=
EXTT8=
EXTT9=
EXTT10=
EXTT11=
EXTT12=
PLAYORDER=
